<mxfile host="app.diagrams.net" modified="2020-08-08T23:24:57.540Z" agent="5.0 (Windows NT 10.0; Win64; x64) AppleWebKit/537.36 (KHTML, like Gecko) Chrome/84.0.4147.105 Safari/537.36" etag="3NEKfxk8kRsdsPBgd99G" version="13.6.2" type="github">
  <diagram id="C5RBs43oDa-KdzZeNtuy" name="Page-1">
    <mxGraphModel dx="1673" dy="934" grid="1" gridSize="10" guides="1" tooltips="1" connect="1" arrows="1" fold="1" page="1" pageScale="1" pageWidth="827" pageHeight="1169" math="0" shadow="0">
      <root>
        <mxCell id="WIyWlLk6GJQsqaUBKTNV-0" />
        <mxCell id="WIyWlLk6GJQsqaUBKTNV-1" parent="WIyWlLk6GJQsqaUBKTNV-0" />
        <mxCell id="xB92je6REpfj618Bk0Vs-29" value="" style="rounded=0;whiteSpace=wrap;html=1;fillColor=#dae8fc;strokeColor=#6c8ebf;" vertex="1" parent="WIyWlLk6GJQsqaUBKTNV-1">
          <mxGeometry x="1060" y="250" width="170" height="320" as="geometry" />
        </mxCell>
        <mxCell id="xB92je6REpfj618Bk0Vs-1" value="" style="rounded=0;whiteSpace=wrap;html=1;fillColor=#d5e8d4;strokeColor=#82b366;" vertex="1" parent="WIyWlLk6GJQsqaUBKTNV-1">
          <mxGeometry x="640" y="610" width="410" height="230" as="geometry" />
        </mxCell>
        <mxCell id="xB92je6REpfj618Bk0Vs-3" style="edgeStyle=orthogonalEdgeStyle;rounded=0;orthogonalLoop=1;jettySize=auto;html=1;" edge="1" parent="WIyWlLk6GJQsqaUBKTNV-1" source="xB92je6REpfj618Bk0Vs-0" target="xB92je6REpfj618Bk0Vs-2">
          <mxGeometry relative="1" as="geometry" />
        </mxCell>
        <mxCell id="xB92je6REpfj618Bk0Vs-10" style="edgeStyle=orthogonalEdgeStyle;rounded=0;orthogonalLoop=1;jettySize=auto;html=1;exitX=0.25;exitY=1;exitDx=0;exitDy=0;" edge="1" parent="WIyWlLk6GJQsqaUBKTNV-1" source="xB92je6REpfj618Bk0Vs-0" target="xB92je6REpfj618Bk0Vs-6">
          <mxGeometry relative="1" as="geometry">
            <Array as="points">
              <mxPoint x="900" y="720" />
              <mxPoint x="720" y="720" />
            </Array>
          </mxGeometry>
        </mxCell>
        <mxCell id="xB92je6REpfj618Bk0Vs-11" style="edgeStyle=orthogonalEdgeStyle;rounded=0;orthogonalLoop=1;jettySize=auto;html=1;exitX=0.5;exitY=1;exitDx=0;exitDy=0;" edge="1" parent="WIyWlLk6GJQsqaUBKTNV-1" source="xB92je6REpfj618Bk0Vs-0" target="xB92je6REpfj618Bk0Vs-7">
          <mxGeometry relative="1" as="geometry" />
        </mxCell>
        <mxCell id="xB92je6REpfj618Bk0Vs-12" style="edgeStyle=orthogonalEdgeStyle;rounded=0;orthogonalLoop=1;jettySize=auto;html=1;exitX=0.75;exitY=1;exitDx=0;exitDy=0;" edge="1" parent="WIyWlLk6GJQsqaUBKTNV-1" source="xB92je6REpfj618Bk0Vs-0" target="xB92je6REpfj618Bk0Vs-8">
          <mxGeometry relative="1" as="geometry" />
        </mxCell>
        <mxCell id="xB92je6REpfj618Bk0Vs-48" style="edgeStyle=orthogonalEdgeStyle;rounded=0;orthogonalLoop=1;jettySize=auto;html=1;exitX=1;exitY=0.5;exitDx=0;exitDy=0;entryX=0.75;entryY=1;entryDx=0;entryDy=0;" edge="1" parent="WIyWlLk6GJQsqaUBKTNV-1" source="xB92je6REpfj618Bk0Vs-0" target="xB92je6REpfj618Bk0Vs-46">
          <mxGeometry relative="1" as="geometry" />
        </mxCell>
        <mxCell id="xB92je6REpfj618Bk0Vs-0" value="SignUpController" style="rounded=0;whiteSpace=wrap;html=1;" vertex="1" parent="WIyWlLk6GJQsqaUBKTNV-1">
          <mxGeometry x="870" y="635" width="120" height="60" as="geometry" />
        </mxCell>
        <mxCell id="xB92je6REpfj618Bk0Vs-2" value="EmailValidator" style="rounded=0;whiteSpace=wrap;html=1;dashed=1;" vertex="1" parent="WIyWlLk6GJQsqaUBKTNV-1">
          <mxGeometry x="670" y="635" width="120" height="60" as="geometry" />
        </mxCell>
        <mxCell id="xB92je6REpfj618Bk0Vs-4" value="Presentation" style="text;html=1;strokeColor=none;fillColor=none;align=center;verticalAlign=middle;whiteSpace=wrap;rounded=0;dashed=1;" vertex="1" parent="WIyWlLk6GJQsqaUBKTNV-1">
          <mxGeometry x="1000" y="585" width="40" height="20" as="geometry" />
        </mxCell>
        <mxCell id="xB92je6REpfj618Bk0Vs-6" value="HttpRequest" style="rounded=0;whiteSpace=wrap;html=1;dashed=1;" vertex="1" parent="WIyWlLk6GJQsqaUBKTNV-1">
          <mxGeometry x="660" y="765" width="120" height="60" as="geometry" />
        </mxCell>
        <mxCell id="xB92je6REpfj618Bk0Vs-7" value="HttpResponse" style="rounded=0;whiteSpace=wrap;html=1;dashed=1;" vertex="1" parent="WIyWlLk6GJQsqaUBKTNV-1">
          <mxGeometry x="785" y="765" width="120" height="60" as="geometry" />
        </mxCell>
        <mxCell id="xB92je6REpfj618Bk0Vs-8" value="Controller" style="rounded=0;whiteSpace=wrap;html=1;dashed=1;" vertex="1" parent="WIyWlLk6GJQsqaUBKTNV-1">
          <mxGeometry x="910" y="765" width="120" height="60" as="geometry" />
        </mxCell>
        <mxCell id="xB92je6REpfj618Bk0Vs-13" value="" style="rounded=0;whiteSpace=wrap;html=1;fillColor=#dae8fc;strokeColor=#6c8ebf;" vertex="1" parent="WIyWlLk6GJQsqaUBKTNV-1">
          <mxGeometry x="440" y="610" width="170" height="110" as="geometry" />
        </mxCell>
        <mxCell id="xB92je6REpfj618Bk0Vs-14" value="Utils" style="text;html=1;strokeColor=none;fillColor=none;align=center;verticalAlign=middle;whiteSpace=wrap;rounded=0;dashed=1;" vertex="1" parent="WIyWlLk6GJQsqaUBKTNV-1">
          <mxGeometry x="570" y="585" width="40" height="20" as="geometry" />
        </mxCell>
        <mxCell id="xB92je6REpfj618Bk0Vs-16" style="edgeStyle=orthogonalEdgeStyle;rounded=0;orthogonalLoop=1;jettySize=auto;html=1;exitX=1;exitY=0.5;exitDx=0;exitDy=0;entryX=0;entryY=0.5;entryDx=0;entryDy=0;" edge="1" parent="WIyWlLk6GJQsqaUBKTNV-1" source="xB92je6REpfj618Bk0Vs-15" target="xB92je6REpfj618Bk0Vs-2">
          <mxGeometry relative="1" as="geometry" />
        </mxCell>
        <mxCell id="xB92je6REpfj618Bk0Vs-25" style="edgeStyle=orthogonalEdgeStyle;rounded=0;orthogonalLoop=1;jettySize=auto;html=1;exitX=0.5;exitY=1;exitDx=0;exitDy=0;entryX=0.5;entryY=0;entryDx=0;entryDy=0;" edge="1" parent="WIyWlLk6GJQsqaUBKTNV-1" source="xB92je6REpfj618Bk0Vs-15" target="xB92je6REpfj618Bk0Vs-17">
          <mxGeometry relative="1" as="geometry" />
        </mxCell>
        <mxCell id="xB92je6REpfj618Bk0Vs-15" value="EmailValidatorAdapter" style="rounded=0;whiteSpace=wrap;html=1;" vertex="1" parent="WIyWlLk6GJQsqaUBKTNV-1">
          <mxGeometry x="460" y="635" width="130" height="60" as="geometry" />
        </mxCell>
        <mxCell id="xB92je6REpfj618Bk0Vs-17" value="Validator" style="rounded=0;whiteSpace=wrap;html=1;" vertex="1" parent="WIyWlLk6GJQsqaUBKTNV-1">
          <mxGeometry x="460" y="760" width="130" height="60" as="geometry" />
        </mxCell>
        <mxCell id="xB92je6REpfj618Bk0Vs-24" style="edgeStyle=orthogonalEdgeStyle;rounded=0;orthogonalLoop=1;jettySize=auto;html=1;entryX=0;entryY=0.5;entryDx=0;entryDy=0;" edge="1" parent="WIyWlLk6GJQsqaUBKTNV-1" source="xB92je6REpfj618Bk0Vs-18" target="xB92je6REpfj618Bk0Vs-13">
          <mxGeometry relative="1" as="geometry" />
        </mxCell>
        <mxCell id="xB92je6REpfj618Bk0Vs-36" style="edgeStyle=orthogonalEdgeStyle;rounded=0;orthogonalLoop=1;jettySize=auto;html=1;exitX=0.5;exitY=0;exitDx=0;exitDy=0;entryX=0;entryY=0.5;entryDx=0;entryDy=0;" edge="1" parent="WIyWlLk6GJQsqaUBKTNV-1" source="xB92je6REpfj618Bk0Vs-18" target="xB92je6REpfj618Bk0Vs-33">
          <mxGeometry relative="1" as="geometry" />
        </mxCell>
        <mxCell id="xB92je6REpfj618Bk0Vs-38" style="edgeStyle=orthogonalEdgeStyle;rounded=0;orthogonalLoop=1;jettySize=auto;html=1;exitX=1;exitY=0.25;exitDx=0;exitDy=0;entryX=0;entryY=0.5;entryDx=0;entryDy=0;" edge="1" parent="WIyWlLk6GJQsqaUBKTNV-1" source="xB92je6REpfj618Bk0Vs-18" target="xB92je6REpfj618Bk0Vs-31">
          <mxGeometry relative="1" as="geometry" />
        </mxCell>
        <mxCell id="xB92je6REpfj618Bk0Vs-18" value="" style="rounded=0;whiteSpace=wrap;html=1;fillColor=#f8cecc;strokeColor=#b85450;" vertex="1" parent="WIyWlLk6GJQsqaUBKTNV-1">
          <mxGeometry x="160" y="410" width="170" height="330" as="geometry" />
        </mxCell>
        <mxCell id="xB92je6REpfj618Bk0Vs-19" value="Main" style="text;html=1;strokeColor=none;fillColor=none;align=center;verticalAlign=middle;whiteSpace=wrap;rounded=0;dashed=1;" vertex="1" parent="WIyWlLk6GJQsqaUBKTNV-1">
          <mxGeometry x="290" y="390" width="40" height="20" as="geometry" />
        </mxCell>
        <mxCell id="xB92je6REpfj618Bk0Vs-20" value="SignUpComposer" style="rounded=0;whiteSpace=wrap;html=1;" vertex="1" parent="WIyWlLk6GJQsqaUBKTNV-1">
          <mxGeometry x="180" y="440" width="130" height="60" as="geometry" />
        </mxCell>
        <mxCell id="xB92je6REpfj618Bk0Vs-28" style="edgeStyle=orthogonalEdgeStyle;rounded=0;orthogonalLoop=1;jettySize=auto;html=1;exitX=0;exitY=0.5;exitDx=0;exitDy=0;" edge="1" parent="WIyWlLk6GJQsqaUBKTNV-1" source="xB92je6REpfj618Bk0Vs-21" target="xB92je6REpfj618Bk0Vs-26">
          <mxGeometry relative="1" as="geometry" />
        </mxCell>
        <mxCell id="xB92je6REpfj618Bk0Vs-21" value="ExpressRouteAdapter" style="rounded=0;whiteSpace=wrap;html=1;" vertex="1" parent="WIyWlLk6GJQsqaUBKTNV-1">
          <mxGeometry x="180" y="510" width="130" height="60" as="geometry" />
        </mxCell>
        <mxCell id="xB92je6REpfj618Bk0Vs-22" value="SIgnUpRouter" style="rounded=0;whiteSpace=wrap;html=1;" vertex="1" parent="WIyWlLk6GJQsqaUBKTNV-1">
          <mxGeometry x="180" y="582.5" width="130" height="60" as="geometry" />
        </mxCell>
        <mxCell id="xB92je6REpfj618Bk0Vs-23" value="App" style="rounded=0;whiteSpace=wrap;html=1;" vertex="1" parent="WIyWlLk6GJQsqaUBKTNV-1">
          <mxGeometry x="180" y="660" width="130" height="60" as="geometry" />
        </mxCell>
        <mxCell id="xB92je6REpfj618Bk0Vs-26" value="Express" style="rounded=0;whiteSpace=wrap;html=1;" vertex="1" parent="WIyWlLk6GJQsqaUBKTNV-1">
          <mxGeometry x="30" y="510" width="100" height="60" as="geometry" />
        </mxCell>
        <mxCell id="xB92je6REpfj618Bk0Vs-30" value="Domain" style="text;html=1;strokeColor=none;fillColor=none;align=center;verticalAlign=middle;whiteSpace=wrap;rounded=0;dashed=1;" vertex="1" parent="WIyWlLk6GJQsqaUBKTNV-1">
          <mxGeometry x="1190" y="225" width="40" height="20" as="geometry" />
        </mxCell>
        <mxCell id="xB92je6REpfj618Bk0Vs-31" value="" style="rounded=0;whiteSpace=wrap;html=1;fillColor=#e1d5e7;strokeColor=#9673a6;" vertex="1" parent="WIyWlLk6GJQsqaUBKTNV-1">
          <mxGeometry x="430" y="410" width="610" height="160" as="geometry" />
        </mxCell>
        <mxCell id="xB92je6REpfj618Bk0Vs-32" value="Data" style="text;html=1;strokeColor=none;fillColor=none;align=center;verticalAlign=middle;whiteSpace=wrap;rounded=0;dashed=1;" vertex="1" parent="WIyWlLk6GJQsqaUBKTNV-1">
          <mxGeometry x="1000" y="390" width="40" height="20" as="geometry" />
        </mxCell>
        <mxCell id="xB92je6REpfj618Bk0Vs-33" value="" style="rounded=0;whiteSpace=wrap;html=1;fillColor=#b0e3e6;strokeColor=#0e8088;" vertex="1" parent="WIyWlLk6GJQsqaUBKTNV-1">
          <mxGeometry x="430" y="250" width="610" height="140" as="geometry" />
        </mxCell>
        <mxCell id="xB92je6REpfj618Bk0Vs-34" value="Infra" style="text;html=1;strokeColor=none;fillColor=none;align=center;verticalAlign=middle;whiteSpace=wrap;rounded=0;dashed=1;" vertex="1" parent="WIyWlLk6GJQsqaUBKTNV-1">
          <mxGeometry x="1000" y="220" width="40" height="20" as="geometry" />
        </mxCell>
        <mxCell id="xB92je6REpfj618Bk0Vs-39" value="Encrypter" style="rounded=0;whiteSpace=wrap;html=1;dashed=1;" vertex="1" parent="WIyWlLk6GJQsqaUBKTNV-1">
          <mxGeometry x="450" y="420" width="120" height="60" as="geometry" />
        </mxCell>
        <mxCell id="xB92je6REpfj618Bk0Vs-43" style="edgeStyle=orthogonalEdgeStyle;rounded=0;orthogonalLoop=1;jettySize=auto;html=1;" edge="1" parent="WIyWlLk6GJQsqaUBKTNV-1" source="xB92je6REpfj618Bk0Vs-40" target="xB92je6REpfj618Bk0Vs-39">
          <mxGeometry relative="1" as="geometry" />
        </mxCell>
        <mxCell id="xB92je6REpfj618Bk0Vs-44" style="edgeStyle=orthogonalEdgeStyle;rounded=0;orthogonalLoop=1;jettySize=auto;html=1;exitX=0.5;exitY=0;exitDx=0;exitDy=0;entryX=0.5;entryY=1;entryDx=0;entryDy=0;" edge="1" parent="WIyWlLk6GJQsqaUBKTNV-1" source="xB92je6REpfj618Bk0Vs-40" target="xB92je6REpfj618Bk0Vs-41">
          <mxGeometry relative="1" as="geometry" />
        </mxCell>
        <mxCell id="xB92je6REpfj618Bk0Vs-45" style="edgeStyle=orthogonalEdgeStyle;rounded=0;orthogonalLoop=1;jettySize=auto;html=1;" edge="1" parent="WIyWlLk6GJQsqaUBKTNV-1" source="xB92je6REpfj618Bk0Vs-40" target="xB92je6REpfj618Bk0Vs-42">
          <mxGeometry relative="1" as="geometry" />
        </mxCell>
        <mxCell id="xB92je6REpfj618Bk0Vs-47" style="edgeStyle=orthogonalEdgeStyle;rounded=0;orthogonalLoop=1;jettySize=auto;html=1;exitX=1;exitY=0.75;exitDx=0;exitDy=0;" edge="1" parent="WIyWlLk6GJQsqaUBKTNV-1" source="xB92je6REpfj618Bk0Vs-40" target="xB92je6REpfj618Bk0Vs-46">
          <mxGeometry relative="1" as="geometry" />
        </mxCell>
        <mxCell id="xB92je6REpfj618Bk0Vs-40" value="DbAddAccount" style="rounded=0;whiteSpace=wrap;html=1;" vertex="1" parent="WIyWlLk6GJQsqaUBKTNV-1">
          <mxGeometry x="675" y="500" width="120" height="60" as="geometry" />
        </mxCell>
        <mxCell id="xB92je6REpfj618Bk0Vs-41" value="LoadUserByEmailRepo" style="rounded=0;whiteSpace=wrap;html=1;dashed=1;" vertex="1" parent="WIyWlLk6GJQsqaUBKTNV-1">
          <mxGeometry x="660" y="420" width="155" height="60" as="geometry" />
        </mxCell>
        <mxCell id="xB92je6REpfj618Bk0Vs-42" value="AddUserRepo" style="rounded=0;whiteSpace=wrap;html=1;dashed=1;" vertex="1" parent="WIyWlLk6GJQsqaUBKTNV-1">
          <mxGeometry x="870" y="420" width="120" height="60" as="geometry" />
        </mxCell>
        <mxCell id="xB92je6REpfj618Bk0Vs-46" value="AddAccount" style="rounded=0;whiteSpace=wrap;html=1;dashed=1;" vertex="1" parent="WIyWlLk6GJQsqaUBKTNV-1">
          <mxGeometry x="1085" y="420" width="120" height="60" as="geometry" />
        </mxCell>
        <mxCell id="xB92je6REpfj618Bk0Vs-54" style="edgeStyle=orthogonalEdgeStyle;rounded=0;orthogonalLoop=1;jettySize=auto;html=1;entryX=0.5;entryY=1;entryDx=0;entryDy=0;" edge="1" parent="WIyWlLk6GJQsqaUBKTNV-1" source="xB92je6REpfj618Bk0Vs-49" target="xB92je6REpfj618Bk0Vs-52">
          <mxGeometry relative="1" as="geometry" />
        </mxCell>
        <mxCell id="xB92je6REpfj618Bk0Vs-55" style="edgeStyle=orthogonalEdgeStyle;rounded=0;orthogonalLoop=1;jettySize=auto;html=1;" edge="1" parent="WIyWlLk6GJQsqaUBKTNV-1" source="xB92je6REpfj618Bk0Vs-49" target="xB92je6REpfj618Bk0Vs-39">
          <mxGeometry relative="1" as="geometry" />
        </mxCell>
        <mxCell id="xB92je6REpfj618Bk0Vs-49" value="BCryptAdapter" style="rounded=0;whiteSpace=wrap;html=1;" vertex="1" parent="WIyWlLk6GJQsqaUBKTNV-1">
          <mxGeometry x="450" y="280" width="120" height="60" as="geometry" />
        </mxCell>
        <mxCell id="xB92je6REpfj618Bk0Vs-56" style="edgeStyle=orthogonalEdgeStyle;rounded=0;orthogonalLoop=1;jettySize=auto;html=1;entryX=0.25;entryY=1;entryDx=0;entryDy=0;" edge="1" parent="WIyWlLk6GJQsqaUBKTNV-1" source="xB92je6REpfj618Bk0Vs-50" target="xB92je6REpfj618Bk0Vs-53">
          <mxGeometry relative="1" as="geometry" />
        </mxCell>
        <mxCell id="xB92je6REpfj618Bk0Vs-58" style="edgeStyle=orthogonalEdgeStyle;rounded=0;orthogonalLoop=1;jettySize=auto;html=1;entryX=0.5;entryY=0;entryDx=0;entryDy=0;" edge="1" parent="WIyWlLk6GJQsqaUBKTNV-1" source="xB92je6REpfj618Bk0Vs-50" target="xB92je6REpfj618Bk0Vs-31">
          <mxGeometry relative="1" as="geometry" />
        </mxCell>
        <mxCell id="xB92je6REpfj618Bk0Vs-50" value="LoadUserByEmailMongoRepo" style="rounded=0;whiteSpace=wrap;html=1;" vertex="1" parent="WIyWlLk6GJQsqaUBKTNV-1">
          <mxGeometry x="610" y="280" width="170" height="60" as="geometry" />
        </mxCell>
        <mxCell id="xB92je6REpfj618Bk0Vs-57" style="edgeStyle=orthogonalEdgeStyle;rounded=0;orthogonalLoop=1;jettySize=auto;html=1;entryX=0.5;entryY=1;entryDx=0;entryDy=0;" edge="1" parent="WIyWlLk6GJQsqaUBKTNV-1" source="xB92je6REpfj618Bk0Vs-51" target="xB92je6REpfj618Bk0Vs-53">
          <mxGeometry relative="1" as="geometry" />
        </mxCell>
        <mxCell id="xB92je6REpfj618Bk0Vs-59" style="edgeStyle=orthogonalEdgeStyle;rounded=0;orthogonalLoop=1;jettySize=auto;html=1;entryX=0.5;entryY=0;entryDx=0;entryDy=0;" edge="1" parent="WIyWlLk6GJQsqaUBKTNV-1" source="xB92je6REpfj618Bk0Vs-51" target="xB92je6REpfj618Bk0Vs-42">
          <mxGeometry relative="1" as="geometry" />
        </mxCell>
        <mxCell id="xB92je6REpfj618Bk0Vs-51" value="AddUserMongoRepo" style="rounded=0;whiteSpace=wrap;html=1;" vertex="1" parent="WIyWlLk6GJQsqaUBKTNV-1">
          <mxGeometry x="840" y="280" width="140" height="60" as="geometry" />
        </mxCell>
        <mxCell id="xB92je6REpfj618Bk0Vs-52" value="BCrypt" style="rounded=0;whiteSpace=wrap;html=1;" vertex="1" parent="WIyWlLk6GJQsqaUBKTNV-1">
          <mxGeometry x="450" y="150" width="120" height="60" as="geometry" />
        </mxCell>
        <mxCell id="xB92je6REpfj618Bk0Vs-53" value="MongoDB" style="rounded=0;whiteSpace=wrap;html=1;" vertex="1" parent="WIyWlLk6GJQsqaUBKTNV-1">
          <mxGeometry x="770" y="150" width="120" height="60" as="geometry" />
        </mxCell>
      </root>
    </mxGraphModel>
  </diagram>
</mxfile>
